<svg width="20" height="20" viewBox="0 0 20 20" fill="none" xmlns="http://www.w3.org/2000/svg">
<path d="M16.25 4.58337L15.7336 12.9376C15.6016 15.072 15.5357 16.1393 15.0007 16.9066C14.7361 17.286 14.3956 17.6061 14.0006 17.8467C13.2017 18.3334 12.1325 18.3334 9.99392 18.3334C7.8526 18.3334 6.78192 18.3334 5.98254 17.8458C5.58733 17.6048 5.24667 17.284 4.98223 16.904C4.4474 16.1355 4.38287 15.0668 4.25384 12.9294L3.75 4.58337" stroke="#080B12" stroke-width="1.25" stroke-linecap="round"/>
<path d="M2.5 4.58329H17.5M13.3797 4.58329L12.8109 3.40973C12.433 2.63018 12.244 2.24039 11.9181 1.9973C11.8458 1.94338 11.7693 1.89541 11.6892 1.85388C11.3283 1.66663 10.8951 1.66663 10.0287 1.66663C9.14067 1.66663 8.69667 1.66663 8.32973 1.86173C8.24842 1.90497 8.17082 1.95488 8.09774 2.01093C7.76803 2.26388 7.58386 2.66792 7.21551 3.47601L6.71077 4.58329" stroke="#080B12" stroke-width="1.25" stroke-linecap="round"/>
<path d="M7.91687 13.75V8.75" stroke="#080B12" stroke-width="1.25" stroke-linecap="round"/>
<path d="M12.0831 13.75V8.75" stroke="#080B12" stroke-width="1.25" stroke-linecap="round"/>
</svg>
